<svg xmlns="http://www.w3.org/2000/svg" width="100%" height="100%" fill="none" stroke="currentColor" stroke-width="4">
	<defs>
		<pattern id="Pattern" x="0" y="0" width="1920" height="1080" patternUnits="userSpaceOnUse">
			<rect width="50" height="50" x="466" y="860" rx="4" ry="4"/>
			<rect width="50" height="50" x="90" y="341" rx="4" ry="4"/>
			<rect width="50" height="50" x="1189" y="729" rx="4" ry="4"/>
			<rect width="50" height="50" x="1418" y="1029" rx="4" ry="4"/>
			<rect width="50" height="50" x="1418" y="-51" rx="4" ry="4"/>
			<rect width="50" height="50" x="1479" y="422" rx="4" ry="4"/>
			<rect width="50" height="50" x="924" y="103" rx="4" ry="4"/>
			<rect width="50" height="50" x="90" y="793" rx="4" ry="4"/>
			<rect width="50" height="50" x="500" y="189" rx="4" ry="4"/>
			<rect width="50" height="50" x="437" y="554" rx="4" ry="4"/>
			<rect width="50" height="50" x="778" y="671" rx="4" ry="4"/>
			<rect width="50" height="50" x="1583" y="736" rx="4" ry="4"/>
			<rect width="50" height="50" x="1225" y="263" rx="4" ry="4"/>
			<rect width="50" height="50" x="212" y="73" rx="4" ry="4"/>
			<rect width="50" height="50" x="1745" y="158" rx="4" ry="4"/>
			<rect width="50" height="50" x="767" y="377" rx="4" ry="4"/>
			<rect width="50" height="50" x="1743" y="406" rx="4" ry="4"/>
			<rect width="50" height="50" x="977" y="911" rx="4" ry="4"/>
			<rect width="50" height="50" x="736" y="966" rx="4" ry="4"/>
			<rect width="50" height="50" x="1686" y="1009" rx="4" ry="4"/>
			<rect width="50" height="50" x="1008" y="354" rx="4" ry="4"/>
			<rect width="50" height="50" x="1178" y="41" rx="4" ry="4"/>
			<rect width="50" height="50" x="1813" y="655" rx="4" ry="4"/>
			<rect width="50" height="50" x="726" y="162" rx="4" ry="4"/>
			<rect width="50" height="50" x="24" y="1020" rx="4" ry="4"/>
			<rect width="50" height="50" x="287" y="698" rx="4" ry="4"/>
			<rect width="50" height="50" x="397" y="1076" rx="4" ry="4"/>
			<rect width="50" height="50" x="397" y="-4" rx="4" ry="4"/>
			<rect width="50" height="50" x="1247" y="512" rx="4" ry="4"/>
			<rect width="50" height="50" x="564" y="398" rx="4" ry="4"/>
			<rect width="50" height="50" x="955" y="593" rx="4" ry="4"/>
			<rect width="50" height="50" x="1538" y="189" rx="4" ry="4"/>
			<rect width="50" height="50" x="362" y="361" rx="4" ry="4"/>
			<rect width="50" height="50" x="1416" y="823" rx="4" ry="4"/>
			<rect width="50" height="50" x="92" y="601" rx="4" ry="4"/>
			<rect width="50" height="50" x="1412" y="628" rx="4" ry="4"/>
			<rect width="50" height="50" x="232" y="950" rx="4" ry="4"/>
			<rect width="50" height="50" x="636" y="802" rx="4" ry="4"/>
			<rect width="50" height="50" x="264" y="502" rx="4" ry="4"/>
			<rect width="50" height="50" x="1826" y="829" rx="4" ry="4"/>
			<rect width="50" height="50" x="580" y="12" rx="4" ry="4"/>
			<rect width="50" height="50" x="1161" y="881" rx="4" ry="4"/>
			<rect width="50" height="50" x="566" y="656" rx="4" ry="4"/>
			<rect width="50" height="50" x="1603" y="540" rx="4" ry="4"/>
			<rect width="50" height="50" x="1360" y="155" rx="4" ry="4"/>
			<rect width="50" height="50" x="25" y="100" rx="4" ry="4"/>
			<rect width="50" height="50" x="1343" y="373" rx="4" ry="4"/>
			<rect width="50" height="50" x="1086" y="515" rx="4" ry="4"/>
			<rect width="50" height="50" x="1286" y="966" rx="4" ry="4"/>
			<rect width="50" height="50" x="1894" y="468" rx="4" ry="4"/>
			<rect width="50" height="50" x="-26" y="468" rx="4" ry="4"/>
			<rect width="50" height="50" x="1031" y="745" rx="4" ry="4"/>
			<rect width="50" height="50" x="847" y="245" rx="4" ry="4"/>
			<rect width="50" height="50" x="248" y="255" rx="4" ry="4"/>
			<rect width="50" height="50" x="650" y="509" rx="4" ry="4"/>
			<rect width="50" height="50" x="865" y="791" rx="4" ry="4"/>
			<rect width="50" height="50" x="1571" y="329" rx="4" ry="4"/>
			<rect width="50" height="50" x="1703" y="874" rx="4" ry="4"/>
			<rect width="50" height="50" x="1864" y="294" rx="4" ry="4"/>
			<rect width="50" height="50" x="1057" y="219" rx="4" ry="4"/>
			<rect width="50" height="50" x="1802" y="33" rx="4" ry="4"/>
			<rect width="50" height="50" x="857" y="1025" rx="4" ry="4"/>
			<rect width="50" height="50" x="1564" y="899" rx="4" ry="4"/>
			<rect width="50" height="50" x="654" y="280" rx="4" ry="4"/>
			<rect width="50" height="50" x="1544" y="19" rx="4" ry="4"/>
			<rect width="50" height="50" x="1042" y="1041" rx="4" ry="4"/>
			<rect width="50" height="50" x="1042" y="-39" rx="4" ry="4"/>
			<rect width="50" height="50" x="337" y="145" rx="4" ry="4"/>
			<rect width="50" height="50" x="904" y="452" rx="4" ry="4"/>
		</pattern>
	</defs>
	<rect fill="url(#Pattern)" width="100%" height="100%" stroke="transparent"/>
</svg>