<svg xmlns="http://www.w3.org/2000/svg" data-diagram-type="CLASS" height="677" preserveAspectRatio="none" style="width:925px;height:677px;background:#161616" width="925"><path fill="#161616" d="M0 0h925v677H0z"/><g class="prefix__cluster" data-entity="UE Classes" data-source-line="1" data-uid="ent0002"><rect fill="none" height="99" rx="2.5" ry="2.5" width="389" x="449.38" y="7" stroke="#e7e7e7"/><text fill="#FFF" font-family="sans-serif" font-size="14" font-weight="bold" textLength="84.82" x="601.47" y="21.995">UE Classes</text></g><g class="prefix__entity" data-entity="UPrimaryDataAsset" data-source-line="2" data-uid="ent0003"><rect fill="#313139" height="48" rx="2.5" ry="2.5" width="168.288" x="465.24" y="42" stroke="#e7e7e7" stroke-width=".5"/><circle cx="480.24" cy="58" fill="#2E5233" stroke="#e7e7e7" r="11"/><path d="M483.209 63.64q-.578.297-1.219.438-.64.156-1.344.156-2.5 0-3.828-1.64-1.312-1.657-1.312-4.782 0-3.124 1.312-4.78 1.328-1.657 3.828-1.657.703 0 1.344.156.656.157 1.219.453v2.72q-.625-.579-1.219-.845-.594-.28-1.219-.28-1.344 0-2.031 1.077-.688 1.063-.688 3.157 0 2.093.688 3.171.688 1.063 2.031 1.063.625 0 1.219-.266.594-.281 1.219-.86v2.72z" fill="#FFF"/><text fill="#FFF" font-family="sans-serif" font-size="14" textLength="136.288" x="494.24" y="62.847">UPrimaryDataAsset</text><path stroke="#e7e7e7" stroke-width=".5" d="M466.24 74h166.288M466.24 82h166.288"/></g><g class="prefix__entity" data-entity="UGameplayEffect" data-source-line="3" data-uid="ent0004"><rect fill="#313139" height="48" rx="2.5" ry="2.5" width="154.069" x="668.35" y="42" stroke="#e7e7e7" stroke-width=".5"/><circle cx="683.35" cy="58" fill="#2E5233" stroke="#e7e7e7" r="11"/><path d="M686.319 63.64q-.578.297-1.219.438-.64.156-1.344.156-2.5 0-3.828-1.64-1.312-1.657-1.312-4.782 0-3.124 1.312-4.78 1.328-1.657 3.828-1.657.703 0 1.344.156.656.157 1.219.453v2.72q-.625-.579-1.219-.845-.594-.28-1.219-.28-1.343 0-2.031 1.077-.688 1.063-.688 3.157 0 2.093.688 3.171.688 1.063 2.031 1.063.625 0 1.219-.266.594-.281 1.219-.86v2.72z" fill="#FFF"/><text fill="#FFF" font-family="sans-serif" font-size="14" textLength="122.069" x="697.35" y="62.847">UGameplayEffect</text><path stroke="#e7e7e7" stroke-width=".5" d="M669.35 74h152.069M669.35 82h152.069"/></g><g class="prefix__entity" data-entity="USpellData" data-source-line="6" data-uid="ent0005"><rect fill="#313139" height="80.594" rx="2.5" ry="2.5" width="191.088" x="453.84" y="205.27" stroke="#e7e7e7" stroke-width=".5"/><circle cx="506.214" cy="221.27" fill="#2E5233" stroke="#e7e7e7" r="11"/><path d="M509.182 226.91q-.578.298-1.219.438-.64.156-1.343.156-2.5 0-3.828-1.64-1.313-1.656-1.313-4.781t1.313-4.782q1.328-1.656 3.828-1.656.703 0 1.344.156.656.157 1.218.453v2.72q-.625-.579-1.219-.845-.593-.28-1.218-.28-1.344 0-2.031 1.077-.688 1.063-.688 3.157 0 2.093.688 3.171.687 1.063 2.03 1.063.626 0 1.22-.266.593-.281 1.218-.86v2.72z" fill="#FFF"/><text fill="#FFF" font-family="sans-serif" font-size="14" textLength="77.841" x="526.713" y="226.117">USpellData</text><path stroke="#e7e7e7" stroke-width=".5" d="M454.84 237.27h189.088"/><circle cx="464.84" cy="250.918" fill="none" stroke="#038048" r="3"/><text fill="#FFF" font-family="sans-serif" font-size="14" textLength="165.088" x="473.84" y="254.265">USpellDelivery Delivery</text><circle cx="464.84" cy="267.215" fill="none" stroke="#038048" r="3"/><text fill="#FFF" font-family="sans-serif" font-size="14" textLength="129.869" x="473.84" y="270.562">USpellEffect Effect</text><path stroke="#e7e7e7" stroke-width=".5" d="M454.84 277.864h189.088"/></g><g class="prefix__entity" data-entity="USpellDelivery" data-source-line="10" data-uid="ent0006"><rect fill="#313139" height="80.594" rx="2.5" ry="2.5" width="293.388" x="243.69" y="415.42" stroke="#e7e7e7" stroke-width=".5"/><circle cx="334.871" cy="431.42" fill="#2E5233" stroke="#e7e7e7" r="11"/><path d="M337.84 437.06q-.578.298-1.219.438-.64.156-1.344.156-2.5 0-3.828-1.64-1.312-1.656-1.312-4.781t1.312-4.782q1.328-1.656 3.828-1.656.704 0 1.344.156.656.156 1.219.453v2.72q-.625-.579-1.219-.845-.594-.28-1.219-.28-1.343 0-2.03 1.077-.688 1.063-.688 3.156 0 2.094.687 3.172.688 1.063 2.031 1.063.625 0 1.22-.266.593-.281 1.218-.86v2.72z" fill="#FFF"/><text fill="#FFF" font-family="sans-serif" font-size="14" textLength="102.525" x="355.371" y="436.267">USpellDelivery</text><path stroke="#e7e7e7" stroke-width=".5" d="M244.69 447.42h291.388M244.69 455.42h291.388"/><circle cx="254.69" cy="469.068" fill="#84BE84" stroke="#038048" r="3"/><text fill="#FFF" font-family="sans-serif" font-size="14" textLength="222.66" x="263.69" y="472.415">void Trigger(Delegate Callback)</text><path fill="#F24D5C" stroke="#c82930" d="M251.69 482.365h6v6h-6z"/><text fill="#FFF" font-family="sans-serif" font-size="14" textLength="267.388" x="263.69" y="488.712">FSpellCastingContext CreateContext()</text></g><g class="prefix__entity" data-entity="USpellEffect" data-source-line="14" data-uid="ent0007"><rect fill="#313139" height="113.188" rx="2.5" ry="2.5" width="345.942" x="572.41" y="399.12" stroke="#e7e7e7" stroke-width=".5"/><circle cx="698.673" cy="415.12" fill="#2E5233" stroke="#e7e7e7" r="11"/><path d="M701.642 420.76q-.578.298-1.219.438-.64.156-1.344.156-2.5 0-3.828-1.64-1.312-1.656-1.312-4.781t1.312-4.782q1.328-1.656 3.828-1.656.704 0 1.344.156.656.156 1.219.453v2.72q-.625-.579-1.219-.845-.594-.28-1.219-.28-1.343 0-2.03 1.077-.688 1.063-.688 3.156 0 2.094.687 3.172.688 1.063 2.031 1.063.625 0 1.22-.266.593-.281 1.218-.86v2.72z" fill="#FFF"/><text fill="#FFF" font-family="sans-serif" font-size="14" textLength="84.916" x="719.173" y="419.967">USpellEffect</text><path stroke="#e7e7e7" stroke-width=".5" d="M573.41 431.12h343.942"/><circle cx="583.41" cy="444.768" fill="none" stroke="#038048" r="3"/><text fill="#FFF" font-family="sans-serif" font-size="14" textLength="193.607" x="592.41" y="448.115">GameplayEffect EffectClass</text><circle cx="583.41" cy="461.065" fill="none" stroke="#038048" r="3"/><text fill="#FFF" font-family="sans-serif" font-size="14" textLength="190.565" x="592.41" y="464.412">Map&lt;Tag, float&gt; DataTags</text><circle cx="583.41" cy="477.362" fill="none" stroke="#038048" r="3"/><text fill="#FFF" font-family="sans-serif" font-size="14" textLength="73.103" x="592.41" y="480.709">float Level</text><path stroke="#e7e7e7" stroke-width=".5" d="M573.41 488.011h343.942"/><circle cx="583.41" cy="501.659" fill="#84BE84" stroke="#038048" r="3"/><text fill="#FFF" font-family="sans-serif" font-size="14" textLength="319.942" x="592.41" y="505.006">void Cast(FSpellCastingContext SpellContext)</text></g><g class="prefix__entity" data-entity="FSpellCastingContext" data-source-line="21" data-uid="ent0008"><rect fill="#313139" height="96.891" rx="2.5" ry="2.5" width="193.72" x="470.52" y="573.31" stroke="#e7e7e7" stroke-width=".5"/><circle cx="490.75" cy="589.31" fill="#313139" stroke="#e7e7e7" r="11"/><path d="M490.235 589.872q-1.86-.703-2.516-1.468-.64-.782-.64-2.094 0-1.688 1.078-2.656 1.078-.969 2.953-.969.86 0 1.703.203.86.188 1.703.578v2.39q-.781-.562-1.61-.843-.812-.297-1.609-.297-.875 0-1.36.36-.468.359-.468 1.015 0 .516.344.86.344.328 1.437.734l1.063.406q1.484.547 2.187 1.453.72.907.72 2.282 0 1.875-1.11 2.796-1.11.922-3.36.922-.921 0-1.843-.218-.922-.22-1.782-.641v-2.531q.97.687 1.891 1.031.922.344 1.813.344.906 0 1.406-.407.5-.421.5-1.156 0-.562-.344-.969-.328-.421-.953-.671l-1.203-.454z" fill="#FFF"/><text fill="#FFF" font-family="sans-serif" font-size="14" textLength="150.097" x="505.913" y="594.157">FSpellCastingContext</text><path stroke="#e7e7e7" stroke-width=".5" d="M471.52 605.31h191.72"/><circle cx="481.52" cy="618.958" fill="none" stroke="#038048" r="3"/><text fill="#FFF" font-family="sans-serif" font-size="14" textLength="167.72" x="490.52" y="622.305">Vector DeliveryLocation</text><circle cx="481.52" cy="635.255" fill="none" stroke="#038048" r="3"/><text fill="#FFF" font-family="sans-serif" font-size="14" textLength="95.471" x="490.52" y="638.602">Guid CasterId</text><circle cx="481.52" cy="651.552" fill="none" stroke="#038048" r="3"/><text fill="#FFF" font-family="sans-serif" font-size="14" textLength="166.701" x="490.52" y="654.899">Guid[] GatheredTargets</text><path stroke="#e7e7e7" stroke-width=".5" d="M471.52 662.201h191.72"/></g><g class="prefix__entity" data-entity="GMN15" data-source-line="35" data-uid="ent0016"><path d="M6 153v185.117h412.76V249.56l34.66-4-34.66-4V163l-10-10H6h0" fill="#714137" stroke="#e7e7e7" stroke-width=".5"/><path d="M408.76 153v10h10l-10-10" fill="#714137" stroke="#e7e7e7" stroke-width=".5"/><text fill="#FFF" font-family="sans-serif" font-size="13" textLength="4.132" x="12" y="189.856"></text><text fill="#FFF" font-family="sans-serif" font-size="13" textLength="12.403" x="12" y="204.989">1.</text><text fill="#FFF" font-family="sans-serif" font-size="13" font-style="italic" textLength="97.17" x="28.536" y="204.989">ExampleAbility</text><text fill="#FFF" font-family="sans-serif" font-size="13" textLength="75.347" x="129.838" y="204.989">is activated</text><text fill="#FFF" font-family="sans-serif" font-size="13" textLength="12.403" x="12" y="220.122">2.</text><text fill="#FFF" font-family="sans-serif" font-size="13" font-style="italic" textLength="97.17" x="28.536" y="220.122">ExampleAbility</text><text fill="#FFF" font-family="sans-serif" font-size="13" textLength="226.573" x="129.838" y="220.122">calls SpellData-&gt;Delivery.Trigger()</text><text fill="#FFF" font-family="sans-serif" font-size="13" textLength="218.924" x="12" y="235.254">3. USpellDelivery performs action</text><text fill="#FFF" font-family="sans-serif" font-size="13" textLength="173.862" x="28.529" y="250.387">(e.g. launches a projectile)</text><text fill="#FFF" font-family="sans-serif" font-size="13" textLength="297.991" x="12" y="265.52">4. USpellDelivery calls internal CreateContext</text><text fill="#FFF" font-family="sans-serif" font-size="13" textLength="293.293" x="28.529" y="280.653">(e.g. collects Actors in a radius after landing)</text><text fill="#FFF" font-family="sans-serif" font-size="13" textLength="385.76" x="12" y="295.786">5. USpellDelivery returns the context through the Delegate</text><text fill="#FFF" font-family="sans-serif" font-size="13" textLength="12.403" x="12" y="310.918">6.</text><text fill="#FFF" font-family="sans-serif" font-size="13" font-style="italic" textLength="97.17" x="28.536" y="310.918">ExampleAbility</text><text fill="#FFF" font-family="sans-serif" font-size="13" textLength="157.219" x="129.838" y="310.918">calls SpellEffect-&gt;Cast()</text><text fill="#FFF" font-family="sans-serif" font-size="13" textLength="12.403" x="12" y="326.051">7.</text><text fill="#FFF" font-family="sans-serif" font-size="13" font-style="italic" textLength="97.17" x="28.536" y="326.051">ExampleAbility</text><text fill="#FFF" font-family="sans-serif" font-size="13" textLength="35.395" x="129.838" y="326.051">ends.</text><path stroke="#e7e7e7" d="M7 167.894h117.105M7 169.894h117.105"/><text fill="#FFF" font-family="sans-serif" font-size="17" font-weight="bold" textLength="176.549" x="124.105" y="173.28">Spell Casting Flow</text><path stroke="#e7e7e7" d="M300.654 167.894H417.76M300.654 169.894H417.76"/></g><g class="prefix__link" data-entity-1="UPrimaryDataAsset" data-entity-2="USpellData" data-source-line="27" data-uid="lnk9" fill="none" stroke="#e7e7e7"><path d="M549.38 108.22v96.83M549.38 90.22l-6 18h12l-6-18z"/></g><g class="prefix__link" data-entity-1="USpellData" data-entity-2="USpellDelivery" data-source-line="28" data-uid="lnk10" stroke="#e7e7e7"><path d="M511.815 295.746c-28.29 37.03-63.015 82.484-91.265 119.474" fill="none"/><path fill="#E7E7E7" d="M519.1 286.21l-6.821 2.34-.464 7.196 6.821-2.34.464-7.196z"/></g><g class="prefix__link" data-entity-1="USpellData" data-entity-2="USpellEffect" data-source-line="29" data-uid="lnk11" stroke="#e7e7e7"><path d="M594.938 294.945c29.99 31.84 64.242 68.225 97.702 103.765" fill="none"/><path fill="#E7E7E7" d="M586.71 286.21l1.202 7.11 7.026 1.625-1.202-7.11-7.026-1.625z"/></g><g class="prefix__link" data-entity-1="UGameplayEffect" data-entity-2="USpellEffect" data-source-line="30" data-uid="lnk12"><path d="M745.38 96.38v302.39" fill="none" stroke="#e7e7e7" stroke-dasharray="7 7"/><path fill="#E7E7E7" stroke="#e7e7e7" d="M745.38 90.38l-4 9 4-4 4 4-4-9z"/><text fill="#FFF" font-family="sans-serif" font-size="13" textLength="102.127" x="746.38" y="250.127">«uses subtype»</text></g><g class="prefix__link" data-entity-1="USpellDelivery" data-entity-2="FSpellCastingContext" data-source-line="31" data-uid="lnk13" stroke="#e7e7e7"><path d="M433.23 496.42c24.86 23.05 51.94 48.142 78.16 72.441" fill="none"/><path fill="#E7E7E7" d="M515.79 572.94l-3.882-9.051.215 5.652-5.653.215 9.32 3.184z"/></g><g class="prefix__link" data-entity-1="USpellEffect" data-entity-2="FSpellCastingContext" data-source-line="32" data-uid="lnk14" stroke="#e7e7e7"><path d="M680.207 516.776c-21.25 19.58-40.487 37.314-60.947 56.164" fill="none"/><path fill="#E7E7E7" d="M684.62 512.71l-9.329 3.157 5.652.231-.231 5.652 3.908-9.04z"/></g></svg>